<svg width="27" height="27" viewBox="0 0 27 27" fill="none" xmlns="http://www.w3.org/2000/svg">
<path d="M25.8326 20.1433C25.0084 19.452 20.1744 16.3909 19.3709 16.5315C18.9937 16.5984 18.7052 16.92 17.9328 17.8413C17.5756 18.2948 17.1834 18.7196 16.7597 19.1116C15.9833 18.9241 15.2319 18.6455 14.5209 18.2817C11.7326 16.9242 9.48001 14.671 8.12333 11.8823C7.75954 11.1713 7.48099 10.4198 7.29346 9.64351C7.6855 9.2198 8.11024 8.82754 8.56373 8.47037C9.48413 7.69802 9.80665 7.41134 9.87361 7.03223C10.0141 6.22688 6.95019 1.39475 6.26177 0.570538C5.9732 0.229158 5.71104 0 5.37532 0C4.4021 0 0 5.44322 0 6.14861C0 6.20613 0.0943037 11.8728 7.25102 19.154C14.5322 26.3108 20.1989 26.4051 20.2565 26.4051C20.9618 26.4051 26.4051 22.003 26.4051 21.0297C26.4051 20.694 26.1759 20.4319 25.8326 20.1433Z" fill="#1E6228"/>
</svg>
